<?xml version="1.0" encoding="UTF-8"?>
<svg width="1024px" height="1024px" viewBox="0 0 1024 1024" version="1.1" xmlns="http://www.w3.org/2000/svg" xmlns:xlink="http://www.w3.org/1999/xlink">
    <title>callbag-jsx-banner</title>
    <defs>
        <path d="M216,0 C290.558441,0 351,60.4415588 351,135 L432,135 L432,447 C432,473.509668 410.509668,495 384,495 L48,495 C21.490332,495 3.24649801e-15,473.509668 0,447 L0,135 L0,135 L81,135 C81,60.4415588 141.441559,0 216,0 Z M216,30 C158.010101,30 111,77.0101013 111,135 L321,135 C321,77.0101013 273.989899,30 216,30 Z" id="path-1"></path>
    </defs>
    <g id="callbag-jsx-banner" stroke="none" stroke-width="1" fill="none" fill-rule="evenodd">
        <g id="bag" transform="translate(296.000000, 136.000000)">
            <mask id="mask-2" fill="white">
                <use xlink:href="#path-1"></use>
            </mask>
            <use fill="#1E5F74" xlink:href="#path-1"></use>
            <polygon id="shade" fill="#133B5C" mask="url(#mask-2)" points="82.125 318.375 164.625 250.125 214.125 307.5 246 237.75 279 268.125 282.75 243.75 447.375 382.5 447.375 554.625 211.5 554.625"></polygon>
            <path d="M233.134252,233.558385 L241.819428,235.883862 C246.616118,237.168187 249.462687,242.094968 248.177418,246.888136 L209.778852,390.088294 C208.493583,394.881462 203.56318,397.725941 198.76649,396.441615 L190.081315,394.116138 C185.284624,392.831813 182.438055,387.905032 183.723325,383.111864 L222.121891,239.911706 C223.40716,235.118538 228.337562,232.274059 233.134252,233.558385 Z M159.929445,245.113472 L166.287434,251.466793 C169.798855,254.975635 169.798855,260.664592 166.287434,264.173434 L115.423118,315.000397 L166.28739,365.82661 C169.750109,369.28665 169.798241,374.866735 166.431799,378.385754 L166.287434,378.533207 L159.929445,384.886528 C156.418024,388.39537 150.724886,388.39537 147.213465,384.886528 L83.6335656,321.353321 C80.1221448,317.844479 80.1221448,312.155521 83.6335656,308.646679 L147.213465,245.113472 C150.724886,241.60463 156.418024,241.60463 159.929445,245.113472 Z M272.070555,245.113472 C275.533207,241.653364 281.117393,241.605307 284.638975,244.969301 L284.786535,245.113472 L348.366434,308.646679 C351.829085,312.106788 351.877178,317.686873 348.510711,321.205869 L348.366434,321.353321 L284.786535,384.886528 C281.323884,388.346636 275.739698,388.394693 272.218116,385.030699 L272.070555,384.886528 L265.712566,378.533207 L265.568201,378.385754 C262.249851,374.917006 262.249213,369.445661 265.566298,365.976183 L265.71261,365.82661 L316.576882,315.000397 L265.712566,264.173434 C262.249914,260.713326 262.201822,255.133241 265.568288,251.614245 L265.712566,251.466793 L272.070555,245.113472 Z" id="jsx" fill="#FCDAB7" mask="url(#mask-2)"></path>
        </g>
        <text id="callbag-jsx" font-family="SourceCodePro-Medium, Source Code Pro" font-size="128" font-weight="400" fill="#212121">
            <tspan x="89.6" y="853">callbag-jsx</tspan>
        </text>
    </g>
</svg>