<?xml version="1.0" encoding="UTF-8"?>
<svg width="1024px" height="1024px" viewBox="0 0 1024 1024" version="1.1" xmlns="http://www.w3.org/2000/svg" xmlns:xlink="http://www.w3.org/1999/xlink">
    <title>callbag-jsx-dark-banner</title>
    <defs>
        <path d="M216,0 C290.558441,0 351,60.4415588 351,135 L432,135 L432,447 C432,473.509668 410.509668,495 384,495 L48,495 C21.490332,495 3.24649801e-15,473.509668 0,447 L0,135 L0,135 L81,135 C81,60.4415588 141.441559,0 216,0 Z M216,30 C158.010101,30 111,77.0101013 111,135 L321,135 C321,77.0101013 273.989899,30 216,30 Z" id="path-1"></path>
    </defs>
    <g id="callbag-jsx-dark-banner" stroke="none" stroke-width="1" fill="none" fill-rule="evenodd">
        <g id="bag" transform="translate(296.000000, 136.000000)">
            <mask id="mask-2" fill="white">
                <use xlink:href="#path-1"></use>
            </mask>
            <use fill="#1E5F74" xlink:href="#path-1"></use>
            <polygon id="shade" fill="#133B5C" mask="url(#mask-2)" points="82.125 318.375 164.625 250.125 214.125 307.5 246 237.75 279 268.125 282.75 243.75 447.375 382.5 447.375 554.625 211.5 554.625"></polygon>
            <path d="M233.134252,233.558385 L241.819428,235.883862 C246.616118,237.168187 249.462687,242.094968 248.177418,246.888136 L209.778852,390.088294 C208.493583,394.881462 203.56318,397.725941 198.76649,396.441615 L190.081315,394.116138 C185.284624,392.831813 182.438055,387.905032 183.723325,383.111864 L222.121891,239.911706 C223.40716,235.118538 228.337562,232.274059 233.134252,233.558385 Z M159.929445,245.113472 L166.287434,251.466793 C169.798855,254.975635 169.798855,260.664592 166.287434,264.173434 L115.423118,315.000397 L166.28739,365.82661 C169.750109,369.28665 169.798241,374.866735 166.431799,378.385754 L166.287434,378.533207 L159.929445,384.886528 C156.418024,388.39537 150.724886,388.39537 147.213465,384.886528 L83.6335656,321.353321 C80.1221448,317.844479 80.1221448,312.155521 83.6335656,308.646679 L147.213465,245.113472 C150.724886,241.60463 156.418024,241.60463 159.929445,245.113472 Z M272.070555,245.113472 C275.533207,241.653364 281.117393,241.605307 284.638975,244.969301 L284.786535,245.113472 L348.366434,308.646679 C351.829085,312.106788 351.877178,317.686873 348.510711,321.205869 L348.366434,321.353321 L284.786535,384.886528 C281.323884,388.346636 275.739698,388.394693 272.218116,385.030699 L272.070555,384.886528 L265.712566,378.533207 L265.568201,378.385754 C262.249851,374.917006 262.249213,369.445661 265.566298,365.976183 L265.71261,365.82661 L316.576882,315.000397 L265.712566,264.173434 C262.249914,260.713326 262.201822,255.133241 265.568288,251.614245 L265.712566,251.466793 L272.070555,245.113472 Z" id="jsx" fill="#FCDAB7" mask="url(#mask-2)"></path>
        </g>
        <path d="M133.76,854.536 C138.368,854.536 142.805333,853.704 147.072,852.04 C151.338667,850.376 155.264,848.008 158.848,844.936 L158.848,844.936 L153.344,836.744 C150.869333,838.792 148.117333,840.541333 145.088,841.992 C142.058667,843.442667 138.624,844.168 134.784,844.168 C131.456,844.168 128.426667,843.634667 125.696,842.568 C122.965333,841.501333 120.597333,839.986667 118.592,838.024 C116.586667,836.061333 115.050667,833.693333 113.984,830.92 C112.917333,828.146667 112.384,825.096 112.384,821.768 C112.384,818.44 112.938667,815.389333 114.048,812.616 C115.157333,809.842667 116.714667,807.474667 118.72,805.512 C120.725333,803.549333 123.136,802.034667 125.952,800.968 C128.768,799.901333 131.84,799.368 135.168,799.368 C138.24,799.368 141.098667,799.944 143.744,801.096 C146.389333,802.248 148.949333,803.848 151.424,805.896 L151.424,805.896 L157.568,797.832 C155.008,795.357333 151.808,793.245333 147.968,791.496 C144.128,789.746667 139.648,788.872 134.528,788.872 C129.749333,788.872 125.248,789.597333 121.024,791.048 C116.8,792.498667 113.066667,794.632 109.824,797.448 C106.581333,800.264 104.021333,803.72 102.144,807.816 C100.266667,811.912 99.328,816.562667 99.328,821.768 C99.328,826.973333 100.202667,831.602667 101.952,835.656 C103.701333,839.709333 106.112,843.144 109.184,845.96 C112.256,848.776 115.904,850.909333 120.128,852.36 C124.352,853.810667 128.896,854.536 133.76,854.536 Z M197.248,854.536 C201.6,854.536 205.845333,853.576 209.984,851.656 C214.122667,849.736 217.856,847.496 221.184,844.936 L221.184,844.936 L221.568,844.936 L222.592,853 L232.96,853 L232.96,815.368 C232.96,807.090667 230.784,800.605333 226.432,795.912 C222.08,791.218667 215.552,788.872 206.848,788.872 C204.117333,788.872 201.450667,789.128 198.848,789.64 C196.245333,790.152 193.728,790.834667 191.296,791.688 C188.864,792.541333 186.581333,793.501333 184.448,794.568 C182.314667,795.634667 180.394667,796.68 178.688,797.704 L178.688,797.704 L183.424,806.28 C186.496,804.488 189.845333,802.866667 193.472,801.416 C197.098667,799.965333 200.832,799.24 204.672,799.24 C210.218667,799.24 214.165333,800.605333 216.512,803.336 C218.858667,806.066667 220.117333,809.352 220.288,813.192 C212.437333,813.789333 205.717333,814.685333 200.128,815.88 C194.538667,817.074667 189.973333,818.610667 186.432,820.488 C182.890667,822.365333 180.288,824.626667 178.624,827.272 C176.96,829.917333 176.128,832.989333 176.128,836.488 C176.128,839.218667 176.661333,841.693333 177.728,843.912 C178.794667,846.130667 180.266667,848.029333 182.144,849.608 C184.021333,851.186667 186.261333,852.402667 188.864,853.256 C191.466667,854.109333 194.261333,854.536 197.248,854.536 Z M200.832,844.424 C197.418667,844.424 194.496,843.741333 192.064,842.376 C189.632,841.010667 188.416,838.749333 188.416,835.592 C188.416,833.714667 188.928,832.008 189.952,830.472 C190.976,828.936 192.704,827.549333 195.136,826.312 C197.568,825.074667 200.832,824.050667 204.928,823.24 C209.024,822.429333 214.144,821.768 220.288,821.256 L220.288,821.256 L220.288,836.104 C217.045333,838.749333 213.824,840.797333 210.624,842.248 C207.424,843.698667 204.16,844.424 200.832,844.424 Z M294.912,854.536 C298.410667,854.536 301.418667,854.237333 303.936,853.64 C306.453333,853.042667 309.205333,852.146667 312.192,850.952 L312.192,850.952 L309.12,841.48 C304.853333,843.272 301.098667,844.168 297.856,844.168 C294.357333,844.168 291.52,843.208 289.344,841.288 C287.168,839.368 286.08,836.232 286.08,831.88 L286.08,831.88 L286.08,762.248 L251.904,762.248 L251.904,772.36 L273.408,772.36 L273.408,831.112 C273.408,838.706667 275.242667,844.509333 278.912,848.52 C282.581333,852.530667 287.914667,854.536 294.912,854.536 Z M371.712,854.536 C375.210667,854.536 378.218667,854.237333 380.736,853.64 C383.253333,853.042667 386.005333,852.146667 388.992,850.952 L388.992,850.952 L385.92,841.48 C381.653333,843.272 377.898667,844.168 374.656,844.168 C371.157333,844.168 368.32,843.208 366.144,841.288 C363.968,839.368 362.88,836.232 362.88,831.88 L362.88,831.88 L362.88,762.248 L328.704,762.248 L328.704,772.36 L350.208,772.36 L350.208,831.112 C350.208,838.706667 352.042667,844.509333 355.712,848.52 C359.381333,852.530667 364.714667,854.536 371.712,854.536 Z M438.4,854.536 C442.069333,854.536 445.589333,853.768 448.96,852.232 C452.330667,850.696 455.317333,848.498667 457.92,845.64 C460.522667,842.781333 462.592,839.261333 464.128,835.08 C465.664,830.898667 466.432,826.12 466.432,820.744 C466.432,815.88 465.856,811.485333 464.704,807.56 C463.552,803.634667 461.888,800.285333 459.712,797.512 C457.536,794.738667 454.826667,792.605333 451.584,791.112 C448.341333,789.618667 444.672,788.872 440.576,788.872 C436.992,788.872 433.450667,789.682667 429.952,791.304 C426.453333,792.925333 423.338667,795.101333 420.608,797.832 L420.608,797.832 L420.224,797.832 L420.736,786.312 L420.736,762.248 L408.064,762.248 L408.064,853 L418.048,853 L419.2,846.088 L419.584,846.088 C422.4,848.818667 425.493333,850.909333 428.864,852.36 C432.234667,853.810667 435.413333,854.536 438.4,854.536 Z M435.968,844.04 C433.92,844.04 431.530667,843.549333 428.8,842.568 C426.069333,841.586667 423.381333,839.901333 420.736,837.512 L420.736,837.512 L420.736,807.944 C423.552,804.957333 426.368,802.802667 429.184,801.48 C432,800.157333 434.688,799.496 437.248,799.496 C442.88,799.496 446.976,801.416 449.536,805.256 C452.096,809.096 453.376,814.301333 453.376,820.872 C453.376,828.381333 451.712,834.12 448.384,838.088 C445.056,842.056 440.917333,844.04 435.968,844.04 Z M504.448,854.536 C508.8,854.536 513.045333,853.576 517.184,851.656 C521.322667,849.736 525.056,847.496 528.384,844.936 L528.384,844.936 L528.768,844.936 L529.792,853 L540.16,853 L540.16,815.368 C540.16,807.090667 537.984,800.605333 533.632,795.912 C529.28,791.218667 522.752,788.872 514.048,788.872 C511.317333,788.872 508.650667,789.128 506.048,789.64 C503.445333,790.152 500.928,790.834667 498.496,791.688 C496.064,792.541333 493.781333,793.501333 491.648,794.568 C489.514667,795.634667 487.594667,796.68 485.888,797.704 L485.888,797.704 L490.624,806.28 C493.696,804.488 497.045333,802.866667 500.672,801.416 C504.298667,799.965333 508.032,799.24 511.872,799.24 C517.418667,799.24 521.365333,800.605333 523.712,803.336 C526.058667,806.066667 527.317333,809.352 527.488,813.192 C519.637333,813.789333 512.917333,814.685333 507.328,815.88 C501.738667,817.074667 497.173333,818.610667 493.632,820.488 C490.090667,822.365333 487.488,824.626667 485.824,827.272 C484.16,829.917333 483.328,832.989333 483.328,836.488 C483.328,839.218667 483.861333,841.693333 484.928,843.912 C485.994667,846.130667 487.466667,848.029333 489.344,849.608 C491.221333,851.186667 493.461333,852.402667 496.064,853.256 C498.666667,854.109333 501.461333,854.536 504.448,854.536 Z M508.032,844.424 C504.618667,844.424 501.696,843.741333 499.264,842.376 C496.832,841.010667 495.616,838.749333 495.616,835.592 C495.616,833.714667 496.128,832.008 497.152,830.472 C498.176,828.936 499.904,827.549333 502.336,826.312 C504.768,825.074667 508.032,824.050667 512.128,823.24 C516.224,822.429333 521.344,821.768 527.488,821.256 L527.488,821.256 L527.488,836.104 C524.245333,838.749333 521.024,840.797333 517.824,842.248 C514.624,843.698667 511.36,844.424 508.032,844.424 Z M587.648,881.288 C593.024,881.288 597.909333,880.712 602.304,879.56 C606.698667,878.408 610.432,876.829333 613.504,874.824 C616.576,872.818667 618.944,870.472 620.608,867.784 C622.272,865.096 623.104,862.216 623.104,859.144 C623.104,853.768 621.098667,849.928 617.088,847.624 C613.077333,845.32 606.976,844.168 598.784,844.168 L598.784,844.168 L585.472,844.168 C577.194667,844.168 573.056,841.992 573.056,837.64 C573.056,835.165333 574.506667,832.989333 577.408,831.112 C579.114667,831.794667 580.842667,832.306667 582.592,832.648 C584.341333,832.989333 585.984,833.16 587.52,833.16 C590.933333,833.16 594.133333,832.690667 597.12,831.752 C600.106667,830.813333 602.709333,829.426667 604.928,827.592 C607.146667,825.757333 608.896,823.517333 610.176,820.872 C611.456,818.226667 612.096,815.197333 612.096,811.784 C612.096,809.565333 611.626667,807.453333 610.688,805.448 C609.749333,803.442667 608.682667,801.757333 607.488,800.392 L607.488,800.392 L622.72,800.392 L622.72,790.408 L596.992,790.408 C594.176,789.384 591.018667,788.872 587.52,788.872 C584.106667,788.872 580.885333,789.384 577.856,790.408 C574.826667,791.432 572.16,792.925333 569.856,794.888 C567.552,796.850667 565.717333,799.218667 564.352,801.992 C562.986667,804.765333 562.304,807.901333 562.304,811.4 C562.304,815.154667 563.050667,818.376 564.544,821.064 C566.037333,823.752 567.893333,825.906667 570.112,827.528 L570.112,827.528 L570.112,828.04 C567.808,829.661333 565.994667,831.517333 564.672,833.608 C563.349333,835.698667 562.688,837.768 562.688,839.816 C562.688,842.461333 563.328,844.616 564.608,846.28 C565.888,847.944 567.381333,849.245333 569.088,850.184 L569.088,850.184 L569.088,850.696 C562.346667,854.450667 558.976,858.973333 558.976,864.264 C558.976,869.810667 561.514667,874.034667 566.592,876.936 C571.669333,879.837333 578.688,881.288 587.648,881.288 Z M587.52,824.968 C583.936,824.968 580.842667,823.773333 578.24,821.384 C575.637333,818.994667 574.336,815.666667 574.336,811.4 C574.336,807.304 575.637333,804.018667 578.24,801.544 C580.842667,799.069333 583.936,797.832 587.52,797.832 C591.104,797.832 594.176,799.069333 596.736,801.544 C599.296,804.018667 600.576,807.304 600.576,811.4 C600.576,815.666667 599.296,818.994667 596.736,821.384 C594.176,823.773333 591.104,824.968 587.52,824.968 Z M588.928,872.456 C582.698667,872.456 577.92,871.581333 574.592,869.832 C571.264,868.082667 569.6,865.714667 569.6,862.728 C569.6,861.106667 570.133333,859.506667 571.2,857.928 C572.266667,856.349333 574.122667,854.834667 576.768,853.384 C578.048,853.810667 579.456,854.088 580.992,854.216 C582.528,854.344 584.277333,854.408 586.24,854.408 L586.24,854.408 L597.376,854.408 C601.813333,854.408 605.141333,854.877333 607.36,855.816 C609.578667,856.754667 610.688,858.589333 610.688,861.32 C610.688,862.770667 610.176,864.157333 609.152,865.48 C608.128,866.802667 606.677333,867.976 604.8,869 C602.922667,870.024 600.64,870.856 597.952,871.496 C595.264,872.136 592.256,872.456 588.928,872.456 Z M693.632,815.368 L693.632,806.152 L637.568,806.152 L637.568,815.368 L693.632,815.368 Z M748.416,778.248 C751.146667,778.248 753.408,777.416 755.2,775.752 C756.992,774.088 757.888,771.890667 757.888,769.16 C757.888,766.429333 756.992,764.232 755.2,762.568 C753.408,760.904 751.146667,760.072 748.416,760.072 C745.685333,760.072 743.424,760.904 741.632,762.568 C739.84,764.232 738.944,766.429333 738.944,769.16 C738.944,771.890667 739.84,774.088 741.632,775.752 C743.424,777.416 745.685333,778.248 748.416,778.248 Z M728.832,880.136 C734.037333,880.136 738.368,879.453333 741.824,878.088 C745.28,876.722667 748.053333,874.824 750.144,872.392 C752.234667,869.96 753.706667,867.101333 754.56,863.816 C755.413333,860.530667 755.84,856.968 755.84,853.128 L755.84,853.128 L755.84,790.408 L715.136,790.408 L715.136,800.648 L743.168,800.648 L743.168,853.896 C743.168,859.016 742.144,862.962667 740.096,865.736 C738.048,868.509333 734.165333,869.896 728.448,869.896 C723.925333,869.896 719.317333,868.786667 714.624,866.568 L714.624,866.568 L710.656,875.912 C713.130667,877.106667 715.925333,878.109333 719.04,878.92 C722.154667,879.730667 725.418667,880.136 728.832,880.136 Z M819.968,854.536 C824.576,854.536 828.650667,854.045333 832.192,853.064 C835.733333,852.082667 838.72,850.717333 841.152,848.968 C843.584,847.218667 845.44,845.192 846.72,842.888 C848,840.584 848.64,838.109333 848.64,835.464 C848.64,833.074667 848.256,830.92 847.488,829 C846.72,827.08 845.376,825.352 843.456,823.816 C841.536,822.28 838.933333,820.872 835.648,819.592 C832.362667,818.312 828.16,817.117333 823.04,816.008 C816.896,814.728 812.501333,813.448 809.856,812.168 C807.210667,810.888 805.888,809.010667 805.888,806.536 C805.888,804.317333 806.848,802.44 808.768,800.904 C810.688,799.368 814.037333,798.6 818.816,798.6 C822.656,798.6 826.346667,799.176 829.888,800.328 C833.429333,801.48 836.693333,803.037333 839.68,805 L839.68,805 L845.568,797.064 C842.410667,794.930667 838.592,793.032 834.112,791.368 C829.632,789.704 824.917333,788.872 819.968,788.872 C815.616,788.872 811.776,789.341333 808.448,790.28 C805.12,791.218667 802.325333,792.498667 800.064,794.12 C797.802667,795.741333 796.096,797.661333 794.944,799.88 C793.792,802.098667 793.216,804.530667 793.216,807.176 C793.216,811.954667 795.2,815.816 799.168,818.76 C803.136,821.704 809.258667,824.029333 817.536,825.736 C821.461333,826.589333 824.618667,827.4 827.008,828.168 C829.397333,828.936 831.253333,829.725333 832.576,830.536 C833.898667,831.346667 834.773333,832.221333 835.2,833.16 C835.626667,834.098667 835.84,835.122667 835.84,836.232 C835.84,838.621333 834.688,840.648 832.384,842.312 C830.08,843.976 826.496,844.808 821.632,844.808 C816.170667,844.808 811.285333,844.082667 806.976,842.632 C802.666667,841.181333 798.677333,839.176 795.008,836.616 L795.008,836.616 L789.376,844.808 C793.216,847.453333 797.781333,849.736 803.072,851.656 C808.362667,853.576 813.994667,854.536 819.968,854.536 Z M878.336,853 L887.552,839.688 C888.746667,837.725333 889.941333,835.826667 891.136,833.992 C892.330667,832.157333 893.525333,830.301333 894.72,828.424 L894.72,828.424 L895.232,828.424 C896.597333,830.216 897.962667,832.093333 899.328,834.056 C900.693333,836.018667 901.973333,837.896 903.168,839.688 L903.168,839.688 L913.152,853 L926.976,853 L903.68,821.768 L925.44,790.408 L912,790.408 L903.68,803.08 C902.656,804.786667 901.568,806.578667 900.416,808.456 C899.264,810.333333 898.133333,812.125333 897.024,813.832 L897.024,813.832 L896.512,813.832 C895.317333,812.125333 894.122667,810.354667 892.928,808.52 C891.733333,806.685333 890.581333,804.914667 889.472,803.208 L889.472,803.208 L880.384,790.408 L866.56,790.408 L888.192,820.488 L864.896,853 L878.336,853 Z" id="callbag-jsx" fill="#FFFFFF" fill-rule="nonzero"></path>
    </g>
</svg>