<?xml version="1.0" encoding="UTF-8"?>
<svg width="681px" height="640px" viewBox="0 0 681 640" version="1.1" xmlns="http://www.w3.org/2000/svg" xmlns:xlink="http://www.w3.org/1999/xlink">
    <title>backpack</title>
    <defs>
        <rect id="path-1" x="0" y="0" width="392" height="544" rx="32"></rect>
        <rect id="path-3" x="0" y="0" width="296" height="296" rx="32"></rect>
        <path d="M0.5,0.5 L112.5,0.5 L112.5,42 C112.5,59.673112 98.173112,74 80.5,74 L32.5,74 C14.826888,74 0.5,59.673112 0.5,42 L0.5,0.5 L0.5,0.5 Z" id="path-5"></path>
        <path d="M120,0 C115.581722,8.11624501e-16 112,3.581722 112,8 L112,59.5 C112,68.336556 104.836556,75.5 96,75.5 L16,75.5 C7.163444,75.5 1.082166e-15,68.336556 0,59.5 L0,32 C-2.164332e-15,14.326888 14.326888,3.24649801e-15 32,0 L120,0 L120,0 Z" id="path-7"></path>
        <path d="M0,0.5 L112,0.5 L112,42 C112,59.673112 97.673112,74 80,74 L32,74 C14.326888,74 2.164332e-15,59.673112 0,42 L0,0.5 L0,0.5 Z" id="path-9"></path>
        <path d="M120,0 C115.581722,8.11624501e-16 112,3.581722 112,8 L112,59.5 C112,68.336556 104.836556,75.5 96,75.5 L16,75.5 C7.163444,75.5 1.082166e-15,68.336556 0,59.5 L0,32 C-2.164332e-15,14.326888 14.326888,3.24649801e-15 32,0 L120,0 L120,0 Z" id="path-11"></path>
        <path d="M0,0 L296,0 L296,36.5 C296,54.173112 281.673112,68.5 264,68.5 L32,68.5 C14.326888,68.5 2.164332e-15,54.173112 0,36.5 L0,0 L0,0 Z" id="path-13"></path>
        <path d="M304,0 C299.581722,8.11624501e-16 296,3.581722 296,8 L296,59.5 C296,68.336556 288.836556,75.5 280,75.5 L16,75.5 C7.163444,75.5 1.082166e-15,68.336556 0,59.5 L0,32 C-2.164332e-15,14.326888 14.326888,3.24649801e-15 32,0 L304,0 L304,0 Z" id="path-15"></path>
    </defs>
    <g id="misc" stroke="none" stroke-width="1" fill="none" fill-rule="evenodd">
        <g id="callbag" transform="translate(-171.000000, -161.000000)">
            <g id="backpack" transform="translate(171.000000, 161.000000)">
                <g id="lift" transform="translate(402.500000, 145.183283)">
                    <path d="M0,22.8167169 L84.5,22.8167169 C198.833333,76.1500503 256,160.15005 256,274.816717 C256,389.483384 198.833333,438.816717 84.5,422.816717 L0,422.816717 C120.666667,412.816717 181.333333,363.483384 182,274.816717 C182.666667,186.15005 122,102.15005 0,22.8167169 Z" id="Path-10" fill="#1D2D50"></path>
                    <path d="M94.6960211,-2.55795385e-13 C242.793342,71.141438 278,182.816717 278,274.816717 C278,366.816717 241.366244,445.656929 93.9876658,446.80094 L89.5,446.818275 L89.5,422.818275 C227.856398,422.818275 254,345.816717 254,274.816717 C254,203.816717 226.248946,90.8462304 88.4996288,23.6642214 L84.3039789,21.6334339 L94.6960211,-2.55795385e-13 Z" id="Path-10-Copy" fill="#133B5C" fill-rule="nonzero"></path>
                </g>
                <path d="M292,0 C345.019336,0 388,42.980664 388,96 C388,149.019336 345.019336,192 292,192 C238.980664,192 196,149.019336 196,96 C196,42.980664 238.980664,0 292,0 Z M292,32 C256.653776,32 228,60.653776 228,96 C228,131.346224 256.653776,160 292,160 C327.346224,160 356,131.346224 356,96 C356,60.653776 327.346224,32 292,32 Z" id="handle" fill="#133B5C"></path>
                <g id="body" transform="translate(32.000000, 96.000000)">
                    <rect id="Rectangle" fill="#133B5C" x="128" y="0" width="392" height="544" rx="32"></rect>
                    <g id="shade">
                        <mask id="mask-2" fill="white">
                            <use xlink:href="#path-1"></use>
                        </mask>
                        <use id="Mask" fill="#1E5F74" xlink:href="#path-1"></use>
                        <polygon fill-opacity="0.12" fill="#1D2D50" mask="url(#mask-2)" points="80.5 544 0 492 264 201.5 38 151.5 316 48 392 54 392 544"></polygon>
                    </g>
                    <g id="zipper" transform="translate(424.000000, 0.000000)" stroke="#E3B688">
                        <path d="M0,0 C17.673112,0 32,14.326888 32,32 L32,184" id="Path"></path>
                        <line x1="29.5" y1="183.5" x2="34.5" y2="183.5" id="Line-Copy-13" stroke-linecap="square"></line>
                        <line x1="29.5" y1="179.5" x2="34.5" y2="179.5" id="Line-Copy-17" stroke-linecap="square"></line>
                        <line x1="29.5" y1="175.5" x2="34.5" y2="175.5" id="Line-Copy-18" stroke-linecap="square"></line>
                        <line x1="29.5" y1="171.5" x2="34.5" y2="171.5" id="Line-Copy-19" stroke-linecap="square"></line>
                        <line x1="29.5" y1="167.5" x2="34.5" y2="167.5" id="Line-Copy-20" stroke-linecap="square"></line>
                        <line x1="29.5" y1="163.5" x2="34.5" y2="163.5" id="Line-Copy-21" stroke-linecap="square"></line>
                        <line x1="29.5" y1="159.5" x2="34.5" y2="159.5" id="Line-Copy-22" stroke-linecap="square"></line>
                        <line x1="29.5" y1="155.5" x2="34.5" y2="155.5" id="Line-Copy-23" stroke-linecap="square"></line>
                        <line x1="29.5" y1="151.5" x2="34.5" y2="151.5" id="Line-Copy-24" stroke-linecap="square"></line>
                        <line x1="29.5" y1="147.5" x2="34.5" y2="147.5" id="Line-Copy-25" stroke-linecap="square"></line>
                        <line x1="29.5" y1="143.5" x2="34.5" y2="143.5" id="Line-Copy-26" stroke-linecap="square"></line>
                        <line x1="29.5" y1="139.5" x2="34.5" y2="139.5" id="Line-Copy-27" stroke-linecap="square"></line>
                        <line x1="29.5" y1="135.5" x2="34.5" y2="135.5" id="Line-Copy-28" stroke-linecap="square"></line>
                        <line x1="29.5" y1="131.5" x2="34.5" y2="131.5" id="Line-Copy-29" stroke-linecap="square"></line>
                        <line x1="29.5" y1="127.5" x2="34.5" y2="127.5" id="Line-Copy-30" stroke-linecap="square"></line>
                        <line x1="29.5" y1="123.5" x2="34.5" y2="123.5" id="Line-Copy-31" stroke-linecap="square"></line>
                        <line x1="29.5" y1="119.5" x2="34.5" y2="119.5" id="Line-Copy-32" stroke-linecap="square"></line>
                        <line x1="29.5" y1="115.5" x2="34.5" y2="115.5" id="Line-Copy-33" stroke-linecap="square"></line>
                        <line x1="29.5" y1="111.5" x2="34.5" y2="111.5" id="Line-Copy-34" stroke-linecap="square"></line>
                        <line x1="29.5" y1="107.5" x2="34.5" y2="107.5" id="Line-Copy-35" stroke-linecap="square"></line>
                        <line x1="29.5" y1="103.5" x2="34.5" y2="103.5" id="Line-Copy-36" stroke-linecap="square"></line>
                        <line x1="29.5" y1="99.5" x2="34.5" y2="99.5" id="Line-Copy-37" stroke-linecap="square"></line>
                        <line x1="29.5" y1="95.5" x2="34.5" y2="95.5" id="Line-Copy-38" stroke-linecap="square"></line>
                        <line x1="29.5" y1="91.5" x2="34.5" y2="91.5" id="Line-Copy-39" stroke-linecap="square"></line>
                        <line x1="29.5" y1="87.5" x2="34.5" y2="87.5" id="Line-Copy-40" stroke-linecap="square"></line>
                        <line x1="29.5" y1="83.5" x2="34.5" y2="83.5" id="Line-Copy-41" stroke-linecap="square"></line>
                        <line x1="29.5" y1="79.5" x2="34.5" y2="79.5" id="Line-Copy-42" stroke-linecap="square"></line>
                        <line x1="29.5" y1="75.5" x2="34.5" y2="75.5" id="Line-Copy-43" stroke-linecap="square"></line>
                        <line x1="29.5" y1="71.5" x2="34.5" y2="71.5" id="Line-Copy-44" stroke-linecap="square"></line>
                        <line x1="29.5" y1="67.5" x2="34.5" y2="67.5" id="Line-Copy-45" stroke-linecap="square"></line>
                        <line x1="29.5" y1="63.5" x2="34.5" y2="63.5" id="Line-Copy-46" stroke-linecap="square"></line>
                        <line x1="29.5" y1="59.5" x2="34.5" y2="59.5" id="Line-Copy-47" stroke-linecap="square"></line>
                        <line x1="29.5" y1="55.5" x2="34.5" y2="55.5" id="Line-Copy-48" stroke-linecap="square"></line>
                        <line x1="29.5" y1="51.5" x2="34.5" y2="51.5" id="Line-Copy-49" stroke-linecap="square"></line>
                        <line x1="29.5" y1="47.5" x2="34.5" y2="47.5" id="Line-Copy-50" stroke-linecap="square"></line>
                        <line x1="29.5" y1="43.5" x2="34.5" y2="43.5" id="Line-Copy-51" stroke-linecap="square"></line>
                        <line x1="29.5" y1="39.5" x2="34.5" y2="39.5" id="Line-Copy-52" stroke-linecap="square"></line>
                        <line x1="29.5" y1="35.5" x2="34.5" y2="35.5" id="Line-Copy-53" stroke-linecap="square"></line>
                        <line x1="29.5" y1="31.5" x2="34.5" y2="31.5" id="Line-Copy-54" stroke-linecap="square"></line>
                        <line x1="29.5" y1="27.5" x2="34.5" y2="27.5" id="Line-Copy-55" stroke-linecap="square"></line>
                        <line x1="28.5" y1="23.5" x2="33.5" y2="23.5" id="Line-Copy-56" stroke-linecap="square"></line>
                        <line x1="27.5" y1="19.5" x2="32.5" y2="19.5" id="Line-Copy-57" stroke-linecap="square"></line>
                        <line x1="24.5" y1="15.5" x2="29.5" y2="15.5" id="Line-Copy-58" stroke-linecap="square"></line>
                        <line x1="22.5" y1="12.5" x2="27.5" y2="12.5" id="Line-Copy-59" stroke-linecap="square"></line>
                        <line x1="19.5" y1="9.5" x2="24.5" y2="9.5" id="Line-Copy-60" stroke-linecap="square"></line>
                        <line x1="17.5" y1="7.5" x2="22.5" y2="7.5" id="Line-Copy-61" stroke-linecap="square"></line>
                        <line x1="15.5" y1="5.5" x2="20.5" y2="5.5" id="Line-Copy-62" stroke-linecap="square"></line>
                        <line x1="12.5" y1="3.5" x2="17.5" y2="3.5" id="Line-Copy-63" stroke-linecap="square"></line>
                        <line x1="9.5" y1="2.5" x2="14.5" y2="2.5" id="Line-Copy-64" stroke-linecap="square"></line>
                        <line x1="6.5" y1="1.5" x2="11.5" y2="1.5" id="Line-Copy-65" stroke-linecap="square"></line>
                    </g>
                    <g id="zipper-handle" transform="translate(457.000000, 189.500000) scale(-1, 1) translate(-457.000000, -189.500000) translate(454.000000, 182.000000)">
                        <path d="M2,5 L4,5 C5.1045695,5 6,5.8954305 6,7 L6,13 C6,14.1045695 5.1045695,15 4,15 L2,15 L2,15 L2,5 Z" id="Rectangle" fill="#616161"></path>
                        <rect id="Rectangle-Copy-13" fill="#212121" x="0" y="5" width="4" height="10" rx="2"></rect>
                        <path d="M2,0 L4,0 C5.1045695,-2.02906125e-16 6,0.8954305 6,2 C6,3.1045695 5.1045695,4 4,4 L2,4 L2,4 L2,0 Z" id="Rectangle" fill="#616161"></path>
                        <rect id="Rectangle-Copy-8" fill="#212121" x="0" y="0" width="4" height="4" rx="2"></rect>
                    </g>
                </g>
                <g id="front-compartment" transform="translate(0.000000, 296.000000)">
                    <rect id="Rectangle-Copy-2" fill="#133B5C" x="80" y="0" width="296" height="296" rx="32"></rect>
                    <g id="zipper" transform="translate(312.000000, 0.000000)" stroke="#E3B688">
                        <line x1="29.5" y1="142.5" x2="34.5" y2="142.5" id="Line-Copy-14" stroke-linecap="square"></line>
                        <line x1="29.5" y1="138.5" x2="34.5" y2="138.5" id="Line-Copy-66" stroke-linecap="square"></line>
                        <line x1="29.5" y1="134.5" x2="34.5" y2="134.5" id="Line-Copy-67" stroke-linecap="square"></line>
                        <line x1="29.5" y1="130.5" x2="34.5" y2="130.5" id="Line-Copy-68" stroke-linecap="square"></line>
                        <line x1="29.5" y1="126.5" x2="34.5" y2="126.5" id="Line-Copy-69" stroke-linecap="square"></line>
                        <line x1="29.5" y1="122.5" x2="34.5" y2="122.5" id="Line-Copy-70" stroke-linecap="square"></line>
                        <line x1="29.5" y1="118.5" x2="34.5" y2="118.5" id="Line-Copy-71" stroke-linecap="square"></line>
                        <line x1="29.5" y1="114.5" x2="34.5" y2="114.5" id="Line-Copy-72" stroke-linecap="square"></line>
                        <line x1="29.5" y1="110.5" x2="34.5" y2="110.5" id="Line-Copy-73" stroke-linecap="square"></line>
                        <line x1="29.5" y1="106.5" x2="34.5" y2="106.5" id="Line-Copy-74" stroke-linecap="square"></line>
                        <line x1="29.5" y1="102.5" x2="34.5" y2="102.5" id="Line-Copy-75" stroke-linecap="square"></line>
                        <line x1="29.5" y1="98.5" x2="34.5" y2="98.5" id="Line-Copy-76" stroke-linecap="square"></line>
                        <line x1="29.5" y1="94.5" x2="34.5" y2="94.5" id="Line-Copy-77" stroke-linecap="square"></line>
                        <line x1="29.5" y1="90.5" x2="34.5" y2="90.5" id="Line-Copy-78" stroke-linecap="square"></line>
                        <line x1="29.5" y1="86.5" x2="34.5" y2="86.5" id="Line-Copy-79" stroke-linecap="square"></line>
                        <line x1="29.5" y1="82.5" x2="34.5" y2="82.5" id="Line-Copy-80" stroke-linecap="square"></line>
                        <line x1="29.5" y1="78.5" x2="34.5" y2="78.5" id="Line-Copy-81" stroke-linecap="square"></line>
                        <line x1="29.5" y1="74.5" x2="34.5" y2="74.5" id="Line-Copy-82" stroke-linecap="square"></line>
                        <line x1="29.5" y1="70.5" x2="34.5" y2="70.5" id="Line-Copy-83" stroke-linecap="square"></line>
                        <line x1="29.5" y1="66.5" x2="34.5" y2="66.5" id="Line-Copy-84" stroke-linecap="square"></line>
                        <line x1="29.5" y1="62.5" x2="34.5" y2="62.5" id="Line-Copy-85" stroke-linecap="square"></line>
                        <line x1="29.5" y1="58.5" x2="34.5" y2="58.5" id="Line-Copy-86" stroke-linecap="square"></line>
                        <line x1="29.5" y1="54.5" x2="34.5" y2="54.5" id="Line-Copy-87" stroke-linecap="square"></line>
                        <line x1="29.5" y1="50.5" x2="34.5" y2="50.5" id="Line-Copy-88" stroke-linecap="square"></line>
                        <line x1="29.5" y1="46.5" x2="34.5" y2="46.5" id="Line-Copy-89" stroke-linecap="square"></line>
                        <line x1="29.5" y1="42.5" x2="34.5" y2="42.5" id="Line-Copy-90" stroke-linecap="square"></line>
                        <line x1="29.5" y1="38.5" x2="34.5" y2="38.5" id="Line-Copy-91" stroke-linecap="square"></line>
                        <line x1="29.5" y1="34.5" x2="34.5" y2="34.5" id="Line-Copy-92" stroke-linecap="square"></line>
                        <line x1="29.5" y1="30.5" x2="34.5" y2="30.5" id="Line-Copy-93" stroke-linecap="square"></line>
                        <line x1="29.5" y1="26.5" x2="34.5" y2="26.5" id="Line-Copy-94" stroke-linecap="square"></line>
                        <line x1="28.5" y1="22.5" x2="33.5" y2="22.5" id="Line-Copy-95" stroke-linecap="square"></line>
                        <line x1="26.5" y1="18.5" x2="31.5" y2="18.5" id="Line-Copy-96" stroke-linecap="square"></line>
                        <line x1="24.5" y1="15.5" x2="29.5" y2="15.5" id="Line-Copy-97" stroke-linecap="square"></line>
                        <line x1="22.5" y1="12.5" x2="27.5" y2="12.5" id="Line-Copy-98" stroke-linecap="square"></line>
                        <line x1="20.5" y1="9.5" x2="25.5" y2="9.5" id="Line-Copy-99" stroke-linecap="square"></line>
                        <line x1="17.5" y1="7.5" x2="22.5" y2="7.5" id="Line-Copy-100" stroke-linecap="square"></line>
                        <line x1="14.5" y1="5.5" x2="19.5" y2="5.5" id="Line-Copy-101" stroke-linecap="square"></line>
                        <line x1="11.5" y1="3.5" x2="16.5" y2="3.5" id="Line-Copy-102" stroke-linecap="square"></line>
                        <line x1="9.5" y1="2.5" x2="14.5" y2="2.5" id="Line-Copy-103" stroke-linecap="square"></line>
                        <line x1="7.5" y1="1.5" x2="12.5" y2="1.5" id="Line-Copy-104" stroke-linecap="square"></line>
                        <path d="M0,0 C17.673112,0 32,14.326888 32,32 L32,142.5 L32,142.5" id="Path"></path>
                    </g>
                    <g id="zipper-handle" transform="translate(345.000000, 148.500000) scale(-1, 1) translate(-345.000000, -148.500000) translate(342.000000, 141.000000)">
                        <path d="M2,5 L4,5 C5.1045695,5 6,5.8954305 6,7 L6,13 C6,14.1045695 5.1045695,15 4,15 L2,15 L2,15 L2,5 Z" id="Rectangle" fill="#616161"></path>
                        <rect id="Rectangle-Copy-13" fill="#212121" x="0" y="5" width="4" height="10" rx="2"></rect>
                        <path d="M2,0 L4,0 C5.1045695,-2.02906125e-16 6,0.8954305 6,2 C6,3.1045695 5.1045695,4 4,4 L2,4 L2,4 L2,0 Z" id="Rectangle" fill="#616161"></path>
                        <rect id="Rectangle-Copy-8" fill="#212121" x="0" y="0" width="4" height="4" rx="2"></rect>
                    </g>
                    <g id="shade" transform="translate(16.000000, 0.000000)">
                        <mask id="mask-4" fill="white">
                            <use xlink:href="#path-3"></use>
                        </mask>
                        <use id="Mask" fill="#1E5F74" xlink:href="#path-3"></use>
                        <polygon fill-opacity="0.12" fill="#1D2D50" mask="url(#mask-4)" points="4.5 264 93 317.5 305 322 313.5 70.5 192 36 185.5 37 163.5 31 144 48.5 105 36.5 66 86 100 133 175.5 163.5 164.5 183 118.5 163.5"></polygon>
                    </g>
                    <g id="small-pocket" transform="translate(0.000000, 160.000000)">
                        <rect id="Rectangle-Copy-9" fill="#133B5C" x="40" y="0" width="112" height="112" rx="32"></rect>
                        <rect id="Rectangle-Copy-11" fill="#1D2D50" x="8" y="0" width="112" height="112" rx="32"></rect>
                        <g id="shade" transform="translate(7.500000, 38.000000)">
                            <mask id="mask-6" fill="white">
                                <use xlink:href="#path-5"></use>
                            </mask>
                            <use id="Mask" fill="#1E5F74" xlink:href="#path-5"></use>
                            <polygon fill-opacity="0.12" fill="#1D2D50" mask="url(#mask-6)" points="-1 33.5 80.5 81 122.5 66 122.5 4.5 94 -8 8.5 6"></polygon>
                        </g>
                        <g id="shade">
                            <mask id="mask-8" fill="white">
                                <use xlink:href="#path-7"></use>
                            </mask>
                            <use id="Mask" fill="#1E5F74" xlink:href="#path-7"></use>
                            <polygon fill-opacity="0.12" fill="#1D2D50" mask="url(#mask-8)" points="47.5 62.5 60 40.5 128 75 122 102.5"></polygon>
                        </g>
                        <g id="button-copy" transform="translate(40.000000, 39.500000)">
                            <path d="M12,0 L16,0 C22.627417,-1.21743675e-15 28,5.372583 28,12 C28,18.627417 22.627417,24 16,24 L12,24 L12,24 L12,0 Z" id="Rectangle" fill="#1D2D50"></path>
                            <rect id="Rectangle-Copy-17" fill="#133B5C" x="0" y="0" width="24" height="24" rx="12"></rect>
                        </g>
                    </g>
                    <g id="small-pocket" transform="translate(136.000000, 160.000000)">
                        <rect id="Rectangle-Copy-10" fill="#133B5C" x="40" y="0" width="112" height="112" rx="32"></rect>
                        <rect id="Rectangle-Copy-12" fill="#1D2D50" x="8" y="0" width="112" height="112" rx="32"></rect>
                        <g id="shade" transform="translate(8.000000, 38.000000)">
                            <mask id="mask-10" fill="white">
                                <use xlink:href="#path-9"></use>
                            </mask>
                            <use id="Mask" fill="#1E5F74" xlink:href="#path-9"></use>
                            <polygon fill-opacity="0.12" fill="#1D2D50" mask="url(#mask-10)" points="0 35 95 81 144 13.5 95 -8 0 -3.5"></polygon>
                        </g>
                        <g id="shade">
                            <mask id="mask-12" fill="white">
                                <use xlink:href="#path-11"></use>
                            </mask>
                            <use id="Mask" fill="#1E5F74" xlink:href="#path-11"></use>
                            <polygon fill-opacity="0.12" fill="#1D2D50" mask="url(#mask-12)" points="47.5 62 60 41 117.5 65.5 101.5 87.5"></polygon>
                        </g>
                        <g id="button" transform="translate(40.000000, 39.500000)">
                            <path d="M12,0 L16,0 C22.627417,-1.21743675e-15 28,5.372583 28,12 C28,18.627417 22.627417,24 16,24 L12,24 L12,24 L12,0 Z" id="Rectangle" fill="#1D2D50"></path>
                            <rect id="Rectangle-Copy-17" fill="#133B5C" x="0" y="0" width="24" height="24" rx="12"></rect>
                        </g>
                    </g>
                    <g id="logo" transform="translate(70.000000, 30.000000)">
                        <path d="M105.422835,0.20558989 L111.212952,1.75590774 C114.410745,2.61212465 116.308458,5.89664559 115.451612,9.09209059 L89.8525679,104.558863 C88.9957217,107.754308 85.7087869,109.650627 82.5109935,108.79441 L76.7208764,107.244092 C73.523083,106.387875 71.6253703,103.103354 72.4822164,99.9079094 L98.0812605,4.44113703 C98.9381066,1.24569203 102.225041,-0.650627017 105.422835,0.20558989 Z M56.6196297,7.90898145 L60.8582896,12.1445286 C63.1992368,14.4837567 63.1992368,18.2763948 60.8582896,20.6156229 L26.9487452,54.5002647 L60.8582602,88.3844065 C63.1667393,90.6911003 63.1988272,94.4111564 60.9545325,96.7571696 L60.8582896,96.8554714 L56.6196297,101.091019 C54.2786824,103.430247 50.483257,103.430247 48.1423098,101.091019 L5.75571043,58.7355471 C3.41476319,56.396319 3.41476319,52.603681 5.75571043,50.2644529 L48.1423098,7.90898145 C50.483257,5.56975336 54.2786824,5.56975336 56.6196297,7.90898145 Z M131.38037,7.90898145 C133.688804,5.60224264 137.411595,5.5702046 139.759317,7.81286734 L139.85769,7.90898145 L182.24429,50.2644529 C184.552724,52.5711917 184.584785,56.2912484 182.340474,58.637246 L182.24429,58.7355471 L139.85769,101.091019 C137.549256,103.397757 133.826465,103.429795 131.478744,101.187133 L131.38037,101.091019 L127.14171,96.8554714 L127.045467,96.7571696 C124.833234,94.4446709 124.832808,90.7971072 127.044199,88.484122 L127.14174,88.3844065 L161.051255,54.5002647 L127.14171,20.6156229 C124.833276,18.3088841 124.801215,14.5888274 127.045526,12.2428297 L127.14171,12.1445286 L131.38037,7.90898145 Z" id="jsx" fill="#E3B688"></path>
                        <path d="M101.422835,0.20558989 L107.212952,1.75590774 C110.410745,2.61212465 112.308458,5.89664559 111.451612,9.09209059 L85.8525679,104.558863 C84.9957217,107.754308 81.7087869,109.650627 78.5109935,108.79441 L72.7208764,107.244092 C69.523083,106.387875 67.6253703,103.103354 68.4822164,99.9079094 L94.0812605,4.44113703 C94.9381066,1.24569203 98.2250414,-0.650627017 101.422835,0.20558989 Z M52.6196297,7.90898145 L56.8582896,12.1445286 C59.1992368,14.4837567 59.1992368,18.2763948 56.8582896,20.6156229 L22.9487452,54.5002647 L56.8582602,88.3844065 C59.1667393,90.6911003 59.1988272,94.4111564 56.9545325,96.7571696 L56.8582896,96.8554714 L52.6196297,101.091019 C50.2786824,103.430247 46.483257,103.430247 44.1423098,101.091019 L1.75571043,58.7355471 C-0.585236811,56.396319 -0.585236811,52.603681 1.75571043,50.2644529 L44.1423098,7.90898145 C46.483257,5.56975336 50.2786824,5.56975336 52.6196297,7.90898145 Z M127.38037,7.90898145 C129.688804,5.60224264 133.411595,5.5702046 135.759317,7.81286734 L135.85769,7.90898145 L178.24429,50.2644529 C180.552724,52.5711917 180.584785,56.2912484 178.340474,58.637246 L178.24429,58.7355471 L135.85769,101.091019 C133.549256,103.397757 129.826465,103.429795 127.478744,101.187133 L127.38037,101.091019 L123.14171,96.8554714 L123.045467,96.7571696 C120.833234,94.4446709 120.832808,90.7971072 123.044199,88.484122 L123.14174,88.3844065 L157.051255,54.5002647 L123.14171,20.6156229 C120.833276,18.3088841 120.801215,14.5888274 123.045526,12.2428297 L123.14171,12.1445286 L127.38037,7.90898145 Z" id="jsx-copy" fill="#FCDAB7"></path>
                    </g>
                </g>
                <g id="top-compartment" transform="translate(40.000000, 144.000000)">
                    <rect id="Rectangle-Copy-4" fill="#133B5C" x="40" y="0" width="296" height="104" rx="32"></rect>
                    <rect id="Rectangle-Copy-5" fill="#1D2D50" x="8" y="0" width="296" height="104" rx="32"></rect>
                    <g id="shade" transform="translate(8.000000, 35.500000)">
                        <mask id="mask-14" fill="white">
                            <use xlink:href="#path-13"></use>
                        </mask>
                        <use id="Mask" fill="#1E5F74" xlink:href="#path-13"></use>
                        <polygon fill-opacity="0.12" fill="#1D2D50" mask="url(#mask-14)" points="296 0 295.5 68.5 147.5 68.5 5 40 227 0"></polygon>
                    </g>
                    <g id="shade">
                        <mask id="mask-16" fill="white">
                            <use xlink:href="#path-15"></use>
                        </mask>
                        <use id="Mask" fill="#1E5F74" xlink:href="#path-15"></use>
                        <polygon fill-opacity="0.12" fill="#1D2D50" mask="url(#mask-16)" points="276 39.5 264.5 63.5 301.5 69 287.5 80.5 26 40.5 17.5 62.5 246 104 326.5 89.5 323.5 61.5 319.5 45.5"></polygon>
                    </g>
                    <g id="button" transform="translate(256.000000, 39.500000)">
                        <path d="M12,0 L16,0 C22.627417,-1.21743675e-15 28,5.372583 28,12 C28,18.627417 22.627417,24 16,24 L12,24 L12,24 L12,0 Z" id="Rectangle" fill="#1D2D50"></path>
                        <rect id="Rectangle-Copy-17" fill="#133B5C" x="0" y="0" width="24" height="24" rx="12"></rect>
                    </g>
                    <g id="button" transform="translate(8.000000, 39.500000)">
                        <path d="M12,0 L16,0 C22.627417,-1.21743675e-15 28,5.372583 28,12 C28,18.627417 22.627417,24 16,24 L12,24 L12,24 L12,0 Z" id="Rectangle" fill="#1D2D50"></path>
                        <rect id="Rectangle-Copy-17" fill="#133B5C" x="0" y="0" width="24" height="24" rx="12"></rect>
                    </g>
                </g>
                <g id="side-pocket" transform="translate(447.000000, 444.000000)">
                    <path d="M32,0 L48,0 C65.673112,-3.24649801e-15 80,14.326888 80,32 L80,148 L80,148 L32,148 C14.326888,148 2.164332e-15,133.673112 0,116 L0,32 C-2.164332e-15,14.326888 14.326888,3.24649801e-15 32,0 Z" id="Rectangle-Copy-6" fill="#1E5F74"></path>
                    <rect id="Rectangle-Copy-7" fill="#133B5C" x="32" y="0" width="80" height="148" rx="32"></rect>
                    <g id="zipper" transform="translate(12.000000, 0.000000)" stroke="#E3B688">
                        <path d="M3,59 C3,53 3,44 3,32 C3,14.326888 17.326888,0 35,0 L51,0" id="Path"></path>
                        <line x1="0.5" y1="58.5" x2="5.5" y2="58.5" id="Line" stroke-linecap="square"></line>
                        <line x1="0.5" y1="54.5" x2="5.5" y2="54.5" id="Line-Copy" stroke-linecap="square"></line>
                        <line x1="0.5" y1="50.5" x2="5.5" y2="50.5" id="Line-Copy-2" stroke-linecap="square"></line>
                        <line x1="0.5" y1="46.5" x2="5.5" y2="46.5" id="Line-Copy-3" stroke-linecap="square"></line>
                        <line x1="0.5" y1="42.5" x2="5.5" y2="42.5" id="Line-Copy-4" stroke-linecap="square"></line>
                        <line x1="0.5" y1="38.5" x2="5.5" y2="38.5" id="Line-Copy-5" stroke-linecap="square"></line>
                        <line x1="0.5" y1="34.5" x2="5.5" y2="34.5" id="Line-Copy-6" stroke-linecap="square"></line>
                        <line x1="0.5" y1="30.5" x2="5.5" y2="30.5" id="Line-Copy-7" stroke-linecap="square"></line>
                        <line x1="0.5" y1="26.5" x2="5.5" y2="26.5" id="Line-Copy-8" stroke-linecap="square"></line>
                        <line x1="1.5" y1="22.5" x2="6.5" y2="22.5" id="Line-Copy-9" stroke-linecap="square"></line>
                        <line x1="3.5" y1="18.5" x2="8.5" y2="18.5" id="Line-Copy-10" stroke-linecap="square"></line>
                        <line x1="5.5" y1="14.5" x2="10.5" y2="14.5" id="Line-Copy-11" stroke-linecap="square"></line>
                        <line x1="8.5" y1="11.5" x2="13.5" y2="11.5" id="Line-Copy-12" stroke-linecap="square"></line>
                        <line x1="11.5" y1="8.5" x2="16.5" y2="8.5" id="Line-Copy-13" stroke-linecap="square"></line>
                        <line x1="14.5" y1="5.5" x2="19.5" y2="5.5" id="Line-Copy-14" stroke-linecap="square"></line>
                        <line x1="18.5" y1="3.5" x2="23.5" y2="3.5" id="Line-Copy-15" stroke-linecap="square"></line>
                        <line x1="22.5" y1="1.5" x2="27.5" y2="1.5" id="Line-Copy-16" stroke-linecap="square"></line>
                    </g>
                    <g id="zipper-handle" transform="translate(11.000000, 57.000000)">
                        <path d="M2,5 L4,5 C5.1045695,5 6,5.8954305 6,7 L6,13 C6,14.1045695 5.1045695,15 4,15 L2,15 L2,15 L2,5 Z" id="Rectangle" fill="#212121"></path>
                        <rect id="Rectangle-Copy-13" fill="#616161" x="0" y="5" width="4" height="10" rx="2"></rect>
                        <path d="M2,0 L4,0 C5.1045695,-2.02906125e-16 6,0.8954305 6,2 C6,3.1045695 5.1045695,4 4,4 L2,4 L2,4 L2,0 Z" id="Rectangle" fill="#212121"></path>
                        <rect id="Rectangle-Copy-8" fill="#616161" x="0" y="0" width="4" height="4" rx="2"></rect>
                    </g>
                </g>
            </g>
        </g>
    </g>
</svg>