<?xml version="1.0" encoding="UTF-8"?>
<svg width="1024px" height="1024px" viewBox="0 0 1024 1024" version="1.1" xmlns="http://www.w3.org/2000/svg" xmlns:xlink="http://www.w3.org/1999/xlink">
    <title>callbag-jsx</title>
    <defs>
        <path d="M432,0 C581.116882,0 702,120.883118 702,270 L864,270 L864,894 C864,947.019336 821.019336,990 768,990 L96,990 C42.980664,990 6.49299601e-15,947.019336 0,894 L0,270 L0,270 L162,270 C162,120.883118 282.883118,0 432,0 Z M432,60 C316.020203,60 222,154.020203 222,270 L642,270 C642,154.020203 547.979797,60 432,60 Z" id="path-1"></path>
    </defs>
    <g id="callbag-jsx" stroke="none" stroke-width="1" fill="none" fill-rule="evenodd">
        <g id="bag" transform="translate(80.000000, 17.000000)">
            <mask id="mask-2" fill="white">
                <use xlink:href="#path-1"></use>
            </mask>
            <use fill="#1E5F74" xlink:href="#path-1"></use>
            <polygon id="shade" fill="#133B5C" mask="url(#mask-2)" points="164.25 636.75 329.25 500.25 428.25 615 492 475.5 558 536.25 565.5 487.5 894.75 765 894.75 1109.25 423 1109.25"></polygon>
            <path d="M466.268504,467.11677 L483.638856,471.767723 C493.232236,474.336374 498.925374,484.189937 496.354836,493.776272 L419.557704,780.176589 C416.987165,789.762924 407.126361,795.451881 397.532981,792.88323 L380.162629,788.232277 C370.569249,785.663626 364.876111,775.810063 367.446649,766.223728 L444.243781,479.823411 C446.81432,470.237076 456.675124,464.548119 466.268504,467.11677 Z M319.858889,490.226944 L332.574869,502.933586 C339.597711,509.95127 339.597711,521.329184 332.574869,528.346869 L230.846236,630.000794 L332.574781,731.65322 C339.500218,738.573301 339.596481,749.733469 332.863598,756.771509 L332.574869,757.066414 L319.858889,769.773056 C312.836047,776.79074 301.449771,776.79074 294.426929,769.773056 L167.267131,642.706641 C160.24429,635.688957 160.24429,624.311043 167.267131,617.293359 L294.426929,490.226944 C301.449771,483.20926 312.836047,483.20926 319.858889,490.226944 Z M544.141111,490.226944 C551.066413,483.306728 562.234785,483.210614 569.27795,489.938602 L569.573071,490.226944 L696.732869,617.293359 C703.658171,624.213575 703.754356,635.373745 697.021423,642.411738 L696.732869,642.706641 L569.573071,769.773056 C562.647768,776.693272 551.479396,776.789386 544.436231,770.061398 L544.141111,769.773056 L531.425131,757.066414 L531.136402,756.771509 C524.499703,749.834013 524.498425,738.891322 531.132596,731.952366 L531.425219,731.65322 L633.153764,630.000794 L531.425131,528.346869 C524.499829,521.426652 524.403644,510.266482 531.136577,503.228489 L531.425131,502.933586 L544.141111,490.226944 Z" id="jsx" fill="#FCDAB7" mask="url(#mask-2)"></path>
        </g>
    </g>
</svg>